<?xml version="1.0" encoding="utf-8"?>
<!-- Generator: Adobe Illustrator 23.1.1, SVG Export Plug-In . SVG Version: 6.00 Build 0)  -->
<svg version="1.1" id="Layer_1" xmlns="http://www.w3.org/2000/svg" xmlns:xlink="http://www.w3.org/1999/xlink" x="0px" y="0px"
	 viewBox="0 0 1000 1000" style="enable-background:new 0 0 1000 1000;" xml:space="preserve">
<style type="text/css">
	.st0{fill:#FFB531;}
	.st1{fill:#3C3A47;}
	.st2{opacity:0.2;}
	.st3{fill:#2D2D2D;stroke:#2D2D2D;stroke-width:6;stroke-linecap:round;stroke-linejoin:round;stroke-miterlimit:10;}
	.st4{fill:#823017;}
	.st5{fill:#9D401E;}
	.st6{opacity:0.46;fill:#9D401E;}
	.st7{fill:none;stroke:#2D2D2D;stroke-width:6;stroke-linecap:round;stroke-linejoin:round;stroke-miterlimit:10;}
	.st8{opacity:0.6;}
	.st9{opacity:0.81;fill:#A4ECFF;}
	.st10{opacity:0.71;}
	.st11{fill:#FFFFFF;}
	.st12{fill:#2D2D2D;}
	.st13{fill:#E0E0E0;}
	.st14{fill:#42494F;}
	.st15{opacity:0.3;fill:#3C3A47;}
	.st16{fill:#373E42;}
	.st17{fill:#76D676;}
	.st18{fill:#D59729;stroke:#2D2D2D;stroke-width:6;stroke-linecap:round;stroke-linejoin:round;stroke-miterlimit:10;}
	.st19{fill:#D59729;}
	.st20{opacity:0.15;}
</style>
<rect id="XMLID_12_" class="st0" width="1000" height="1000"/>
<g id="XMLID_177_" class="st2">
	<path id="XMLID_156_" class="st3" d="M329.3,272.4v53h72v-53H329.3z M391.3,306.4h-52v-24h52V306.4z"/>
	<line id="XMLID_150_" class="st3" x1="365.3" y1="294.4" x2="365.3" y2="306.4"/>
	<rect id="XMLID_145_" x="336.3" y="438.5" class="st3" width="58" height="23.8"/>
	<rect id="XMLID_142_" x="336.3" y="559.5" class="st3" width="58" height="23.8"/>
	<circle id="XMLID_59_" class="st3" cx="365.3" cy="511.5" r="57"/>
	<path id="XMLID_183_" class="st3" d="M425.3,515.6h-1.4c-2.3,0-4.2-1.9-4.2-4.2v-6.8c0-2.3,1.9-4.2,4.2-4.2h1.4
		c2.3,0,4.2,1.9,4.2,4.2v6.8C429.5,513.7,427.6,515.6,425.3,515.6z"/>
	<rect id="XMLID_58_" x="344.3" y="325.5" class="st3" width="42" height="121.4"/>
	<path id="XMLID_52_" class="st3" d="M365.3,758.9L365.3,758.9c-11.9,0-21.5-6.6-21.5-18.5V577.5h43v162.9
		C386.8,752.2,377.1,758.9,365.3,758.9z"/>
</g>
<g id="XMLID_26_" class="st2">
	<path id="XMLID_25_" class="st3" d="M579.8,559.2l20.6-12.4c-15.8-10.4-26-28.6-25.3-48.9c0.8-23.4,15.9-42.9,36.6-50.5l-22.9-13.4
		c-20.9,13.4-35.1,36.5-36,63.1C551.9,521.7,562.5,544.2,579.8,559.2z"/>
	<path id="XMLID_16_" class="st3" d="M705.3,654.9l-71.4-46l-11.7-361.9c-0.2-4.7-4.1-8.4-8.8-8.2l-4.8,0.2
		c-4.7,0.2-8.4,4.1-8.2,8.8l12,373.3l0,0l0,0l81,52.2c3.9,2.5,9.2,1.4,11.7-2.5l2.6-4C710.4,662.7,709.3,657.5,705.3,654.9z"/>
	<path id="XMLID_14_" class="st3" d="M727.5,351.1l-74.6,40.7L615,751.9c-0.5,4.7-4.7,8.1-9.3,7.6l-4.8-0.5
		c-4.7-0.5-8.1-4.7-7.6-9.3l39.1-371.5l0,0l0,0L717,332c4.1-2.2,9.3-0.7,11.5,3.4l2.3,4.2C733.1,343.7,731.6,348.8,727.5,351.1z"/>
	<circle id="XMLID_10_" class="st3" cx="617.1" cy="356.8" r="99.8"/>
</g>
<g>
	<path id="XMLID_133_" class="st4" d="M684.9,647.7l-73-43.4l-24.8-361.3c-0.3-4.7-4.4-8.2-9.1-7.9l-4.8,0.3
		c-4.7,0.3-8.2,4.4-7.9,9.1l25.6,372.6l0,0l0,0l82.9,49.2c4,2.4,9.2,1.1,11.6-3l2.4-4.1C690.3,655.3,689,650.1,684.9,647.7z"/>
	<path id="XMLID_151_" class="st5" d="M556,556.6l20.2-13.1c-16.2-9.8-27.1-27.6-27.1-47.9c0-23.4,14.4-43.4,34.7-51.8l-23.4-12.6
		c-20.4,14.2-33.7,37.7-33.7,64.4C526.7,520.2,538.2,542.2,556,556.6z"/>
	<path id="XMLID_213_" class="st6" d="M533.7,495.5c0-25.4,12.1-47.9,30.8-62.2l-4-2.2c-20.4,14.2-33.7,37.7-33.7,64.4
		c0,24.7,11.4,46.7,29.3,61.1l4-2.6C543.9,539.6,533.7,518.7,533.7,495.5z"/>
	<path id="XMLID_22_" class="st4" d="M540.7,450.8c7.1,3.3,14.7,5.9,22.5,7.5c5.6-6.3,12.7-11.4,20.6-14.7l-23.4-12.6
		C552.8,436.4,546.1,443.1,540.7,450.8z"/>
	<path id="XMLID_17_" class="st4" d="M556,556.6l20.2-13.1c-4.8-2.9-9.2-6.6-13-10.8c-7.8,1.7-15.4,4.2-22.5,7.5
		C545,546.3,550.2,551.9,556,556.6z"/>
	<path id="XMLID_176_" class="st7" d="M556,556.6l20.2-13.1c-16.2-9.8-27.1-27.6-27.1-47.9c0-23.4,14.4-43.4,34.7-51.8l-23.4-12.6
		c-20.4,14.2-33.7,37.7-33.7,64.4C526.7,520.2,538.2,542.2,556,556.6z"/>
	<path id="XMLID_158_" class="st7" d="M684.9,647.7l-73-43.4l-24.8-361.3c-0.3-4.7-4.4-8.2-9.1-7.9l-4.8,0.3
		c-4.7,0.3-8.2,4.4-7.9,9.1l25.6,372.6l0,0l0,0l82.9,49.2c4,2.4,9.2,1.1,11.6-3l2.4-4.1C690.3,655.3,689,650.1,684.9,647.7z"/>
	<path id="XMLID_160_" class="st4" d="M696,343.2l-73,43.4l-24.8,361.3c-0.3,4.7-4.4,8.2-9.1,7.9l-4.8-0.3c-4.7-0.3-8.2-4.4-7.9-9.1
		L602,373.7l0,0l0,0l82.9-49.2c4-2.4,9.2-1.1,11.6,3l2.4,4.1C701.4,335.6,700,340.9,696,343.2z"/>
	<path id="XMLID_152_" class="st7" d="M696,343.2l-73,43.4l-24.8,361.3c-0.3,4.7-4.4,8.2-9.1,7.9l-4.8-0.3c-4.7-0.3-8.2-4.4-7.9-9.1
		L602,373.7l0,0l0,0l82.9-49.2c4-2.4,9.2-1.1,11.6,3l2.4,4.1C701.4,335.6,700,340.9,696,343.2z"/>
	<path id="XMLID_41_" class="st5" d="M586,253.2c-55.1,0-99.8,44.7-99.8,99.8s44.7,99.8,99.8,99.8c55.1,0,99.8-44.7,99.8-99.8
		S641.1,253.2,586,253.2z M586,429.9c-42.5,0-76.9-34.4-76.9-76.9S543.5,276,586,276c42.5,0,76.9,34.5,76.9,76.9
		S628.4,429.9,586,429.9z"/>
	<g id="XMLID_204_" class="st8">
		<path id="XMLID_208_" class="st5" d="M494.2,353c0-53.8,42.5-97.6,95.8-99.7c-1.3-0.1-2.7-0.1-4-0.1c-55.1,0-99.8,44.7-99.8,99.8
			c0,55.1,44.7,99.8,99.8,99.8c1.3,0,2.7,0,4-0.1C536.7,450.6,494.2,406.7,494.2,353z"/>
		<path id="XMLID_227_" class="st5" d="M590,429.8c1.3,0.1,2.7,0.1,4,0.1c42.5,0,76.9-34.4,76.9-76.9S636.4,276,594,276
			c-1.3,0-2.7,0-4,0.1c40.6,2.1,72.9,35.7,72.9,76.8S630.6,427.7,590,429.8z"/>
	</g>
	<path id="XMLID_63_" class="st7" d="M586,253.2c-55.1,0-99.8,44.7-99.8,99.8s44.7,99.8,99.8,99.8c55.1,0,99.8-44.7,99.8-99.8
		S641.1,253.2,586,253.2z M586,429.9c-42.5,0-76.9-34.4-76.9-76.9S543.5,276,586,276c42.5,0,76.9,34.5,76.9,76.9
		S628.4,429.9,586,429.9z"/>
	<circle id="XMLID_5_" class="st7" cx="586" cy="353" r="99.8"/>
	<circle id="XMLID_66_" class="st9" cx="586" cy="353" r="76.9"/>
	<circle id="XMLID_64_" class="st7" cx="586" cy="353" r="76.9"/>
	<path id="XMLID_157_" class="st5" d="M586,538.2c-55.1,0-99.8,44.7-99.8,99.8c0,55.1,44.7,99.8,99.8,99.8
		c55.1,0,99.8-44.7,99.8-99.8C685.7,582.9,641.1,538.2,586,538.2z M586,714.9c-42.5,0-76.9-34.4-76.9-76.9
		c0-42.5,34.5-76.9,76.9-76.9c42.5,0,76.9,34.5,76.9,76.9C662.9,680.5,628.4,714.9,586,714.9z"/>
	<g id="XMLID_179_" class="st8">
		<g>
			<g id="XMLID_140_">
				<path class="st5" d="M590,714.8c1.3,0.1,2.7,0.1,4,0.1c42.5,0,76.9-34.5,76.9-76.9S636.4,561,594,561c-1.3,0-2.7,0-4,0.1
					c40.6,2.1,72.9,35.7,72.9,76.8S630.6,712.7,590,714.8z"/>
			</g>
			<g id="XMLID_139_">
				<path class="st5" d="M494.2,638c0-53.8,42.5-97.6,95.8-99.7c-1.3-0.1-2.7-0.1-4-0.1c-55.1,0-99.8,44.7-99.8,99.8
					c0,55.1,44.7,99.8,99.8,99.8c1.3,0,2.7,0,4-0.1C536.7,735.6,494.2,691.7,494.2,638z"/>
			</g>
		</g>
	</g>
	<path id="XMLID_153_" class="st7" d="M586,538.2c-55.1,0-99.8,44.7-99.8,99.8c0,55.1,44.7,99.8,99.8,99.8
		c55.1,0,99.8-44.7,99.8-99.8C685.7,582.9,641.1,538.2,586,538.2z M586,714.9c-42.5,0-76.9-34.4-76.9-76.9
		c0-42.5,34.5-76.9,76.9-76.9c42.5,0,76.9,34.5,76.9,76.9C662.9,680.5,628.4,714.9,586,714.9z"/>
	<circle id="XMLID_146_" class="st9" cx="586" cy="638" r="76.9"/>
	<circle id="XMLID_137_" class="st7" cx="586" cy="638" r="76.9"/>
	<g id="XMLID_173_" class="st10">
		<path class="st11" d="M546.7,353.8c-0.1,18.7,3.3,32.5-3.2,32.4c-6.2,0.1-20-13.7-19.8-32.4c-0.1-18.7,13.6-32.5,19.8-32.4
			C550,321.2,546.5,335,546.7,353.8z"/>
	</g>
	<g id="XMLID_178_" class="st10">
		<path class="st11" d="M551.8,638c-0.1,18.7,3.3,32.5-3.2,32.4c-6.2,0.1-20-13.7-19.8-32.4c-0.1-18.7,13.6-32.5,19.8-32.4
			C555.1,605.5,551.7,619.2,551.8,638z"/>
	</g>
</g>
<g>
	<path id="XMLID_174_" class="st7" d="M410.8,515.6h-1.4c-2.3,0-4.2-1.9-4.2-4.2v-6.8c0-2.3,1.9-4.2,4.2-4.2h1.4
		c2.3,0,4.2,1.9,4.2,4.2v6.8C415,513.7,413.1,515.6,410.8,515.6z"/>
	<path id="XMLID_181_" class="st12" d="M410.8,515.6h-1.4c-2.3,0-4.2-1.9-4.2-4.2v-6.8c0-2.3,1.9-4.2,4.2-4.2h1.4
		c2.3,0,4.2,1.9,4.2,4.2v6.8C415,513.7,413.1,515.6,410.8,515.6z"/>
	<g id="XMLID_106_">
		<path id="XMLID_29_" class="st11" d="M315.3,268.4v53h72v-53H315.3z M377.3,302.4h-52v-24h52V302.4z"/>
		<path id="XMLID_37_" class="st7" d="M315.3,268.4v53h72v-53H315.3z M377.3,302.4h-52v-24h52V302.4z"/>
		<line id="XMLID_38_" class="st7" x1="351.3" y1="290.4" x2="351.3" y2="302.4"/>
		<rect id="XMLID_40_" x="322.3" y="434.5" class="st13" width="58" height="23.8"/>
		<rect id="XMLID_32_" x="322.3" y="434.5" class="st7" width="58" height="23.8"/>
		<rect id="XMLID_50_" x="322.3" y="555.5" class="st13" width="58" height="23.8"/>
		<rect id="XMLID_49_" x="322.3" y="555.5" class="st7" width="58" height="23.8"/>
		<circle id="XMLID_28_" class="st11" cx="351.3" cy="507.5" r="57"/>
		<circle id="XMLID_27_" class="st7" cx="351.3" cy="507.5" r="57"/>
		<circle id="XMLID_39_" class="st14" cx="351.3" cy="507.5" r="45"/>
		<circle id="XMLID_42_" class="st7" cx="351.3" cy="507.5" r="45"/>
		<rect id="XMLID_23_" x="330.3" y="321.5" class="st1" width="42" height="121.4"/>
		<rect id="XMLID_2_" x="329.8" y="431.1" class="st15" width="42.3" height="11.5"/>
		<rect id="XMLID_6_" x="329.8" y="317.7" class="st15" width="42.3" height="11.5"/>
		<rect id="XMLID_19_" x="330.3" y="321.5" class="st7" width="42" height="121.4"/>
		<path id="XMLID_46_" class="st1" d="M351.3,754.9L351.3,754.9c-11.9,0-21.5-6.6-21.5-18.5V573.5h43v162.9
			C372.8,748.2,363.1,754.9,351.3,754.9z"/>
		<rect id="XMLID_1_" x="329.8" y="573.5" class="st15" width="42.3" height="11.5"/>
		<path id="XMLID_45_" class="st7" d="M351.3,754.9L351.3,754.9c-11.9,0-21.5-6.6-21.5-18.5V573.5h43v162.9
			C372.8,748.2,363.1,754.9,351.3,754.9z"/>
		<g id="XMLID_35_">
			<g id="XMLID_33_">
				<polygon id="XMLID_83_" class="st16" points="317.7,505.7 317.7,497.7 318.7,496.8 319.6,497.7 319.6,505.7 318.7,506.7 				"/>
				<polygon id="XMLID_82_" class="st16" points="328.4,505.7 328.4,497.7 329.4,496.8 330.3,497.7 330.3,505.7 329.4,506.7 				"/>
				<polygon id="XMLID_81_" class="st16" points="320,497.3 319.1,496.4 320,495.5 328,495.5 328.9,496.4 328,497.3 				"/>
				<polygon id="XMLID_80_" class="st16" points="320,508 319.1,507.1 320,506.2 328,506.2 328.9,507.1 328,508 				"/>
				<polygon id="XMLID_79_" class="st16" points="317.7,516.4 317.7,508.4 318.7,507.5 319.6,508.4 319.6,516.4 318.7,517.3 				"/>
				<polygon id="XMLID_78_" class="st16" points="328.4,516.4 328.4,508.4 329.4,507.5 330.3,508.4 330.3,516.4 329.4,517.3 				"/>
				<polygon id="XMLID_65_" class="st16" points="320,518.7 319.1,517.8 320,516.9 328,516.9 328.9,517.8 328,518.7 				"/>
			</g>
			<g id="XMLID_44_">
				<polygon id="XMLID_85_" class="st16" points="333.5,505.7 333.5,497.7 334.4,496.8 335.3,497.7 335.3,505.7 334.4,506.7 				"/>
				<polygon id="XMLID_84_" class="st17" points="344.1,505.7 344.1,497.7 345.1,496.8 346,497.7 346,505.7 345.1,506.7 				"/>
				<polygon id="XMLID_56_" class="st16" points="335.7,497.3 334.8,496.4 335.7,495.5 343.7,495.5 344.6,496.4 343.7,497.3 				"/>
				<polygon id="XMLID_54_" class="st16" points="335.7,508 334.8,507.1 335.7,506.2 343.7,506.2 344.6,507.1 343.7,508 				"/>
				<polygon id="XMLID_51_" class="st16" points="333.5,516.4 333.5,508.4 334.4,507.5 335.3,508.4 335.3,516.4 334.4,517.3 				"/>
				<polygon id="XMLID_48_" class="st17" points="344.1,516.4 344.1,508.4 345.1,507.5 346,508.4 346,516.4 345.1,517.3 				"/>
				<polygon id="XMLID_47_" class="st16" points="335.7,518.7 334.8,517.8 335.7,516.9 343.7,516.9 344.6,517.8 343.7,518.7 				"/>
			</g>
			<g id="XMLID_94_">
				<polygon id="XMLID_101_" class="st17" points="355,505.7 355,497.7 355.9,496.8 356.8,497.7 356.8,505.7 355.9,506.7 				"/>
				<polygon id="XMLID_100_" class="st17" points="365.7,505.7 365.7,497.7 366.6,496.8 367.5,497.7 367.5,505.7 366.6,506.7 				
					"/>
				<polygon id="XMLID_99_" class="st17" points="357.2,497.3 356.3,496.4 357.2,495.5 365.2,495.5 366.1,496.4 365.2,497.3 				"/>
				<polygon id="XMLID_98_" class="st16" points="357.2,508 356.3,507.1 357.2,506.2 365.2,506.2 366.1,507.1 365.2,508 				"/>
				<polygon id="XMLID_97_" class="st17" points="355,516.4 355,508.4 355.9,507.5 356.8,508.4 356.8,516.4 355.9,517.3 				"/>
				<polygon id="XMLID_96_" class="st17" points="365.7,516.4 365.7,508.4 366.6,507.5 367.5,508.4 367.5,516.4 366.6,517.3 				"/>
				<polygon id="XMLID_95_" class="st17" points="357.2,518.7 356.3,517.8 357.2,516.9 365.2,516.9 366.1,517.8 365.2,518.7 				"/>
			</g>
			<g id="XMLID_86_">
				<polygon id="XMLID_93_" class="st17" points="370.7,505.7 370.7,497.7 371.6,496.8 372.5,497.7 372.5,505.7 371.6,506.7 				"/>
				<polygon id="XMLID_92_" class="st17" points="381.4,505.7 381.4,497.7 382.3,496.8 383.2,497.7 383.2,505.7 382.3,506.7 				"/>
				<polygon id="XMLID_91_" class="st17" points="372.9,497.3 372,496.4 372.9,495.5 380.9,495.5 381.9,496.4 380.9,497.3 				"/>
				<polygon id="XMLID_90_" class="st17" points="372.9,508 372,507.1 372.9,506.2 380.9,506.2 381.9,507.1 380.9,508 				"/>
				<polygon id="XMLID_89_" class="st17" points="370.7,516.4 370.7,508.4 371.6,507.5 372.5,508.4 372.5,516.4 371.6,517.3 				"/>
				<polygon id="XMLID_88_" class="st17" points="381.4,516.4 381.4,508.4 382.3,507.5 383.2,508.4 383.2,516.4 382.3,517.3 				"/>
				<polygon id="XMLID_87_" class="st17" points="372.9,518.7 372,517.8 372.9,516.9 380.9,516.9 381.9,517.8 380.9,518.7 				"/>
			</g>
			<rect id="XMLID_102_" x="349.4" y="502.7" class="st17" width="1.8" height="1.8"/>
			<rect id="XMLID_104_" x="349.4" y="509.7" class="st17" width="1.8" height="1.8"/>
		</g>
		<path id="XMLID_67_" class="st7" d="M351.4,306.4L351.4,306.4c-1.4,0-2.5-1.1-2.5-2.5v-0.3c0-1.4,1.1-2.5,2.5-2.5l0,0
			c1.4,0,2.5,1.1,2.5,2.5v0.3C353.9,305.3,352.8,306.4,351.4,306.4z"/>
		<g id="XMLID_105_">
			<ellipse id="XMLID_103_" class="st11" cx="351.3" cy="628.5" rx="5.9" ry="6"/>
			<ellipse id="XMLID_72_" class="st18" cx="351.3" cy="628.5" rx="5.9" ry="6"/>
		</g>
		<g id="XMLID_107_">
			<ellipse id="XMLID_109_" class="st19" cx="351.3" cy="654.2" rx="5.9" ry="6"/>
			<ellipse id="XMLID_108_" class="st7" cx="351.3" cy="654.2" rx="5.9" ry="6"/>
		</g>
		<g id="XMLID_147_">
			<ellipse id="XMLID_149_" class="st19" cx="351.3" cy="677.8" rx="5.9" ry="6"/>
			<ellipse id="XMLID_148_" class="st7" cx="351.3" cy="677.8" rx="5.9" ry="6"/>
		</g>
	</g>
	<g id="XMLID_180_" class="st20">
		<path class="st11" d="M323.7,508c-0.1,14.7,3.8,25.4,0.3,25.3c-3.3,0.1-12.8-10.7-12.7-25.3c-0.1-14.7,9.4-25.4,12.7-25.3
			C327.6,482.6,323.6,493.3,323.7,508z"/>
	</g>
</g>
</svg>
